<svg width="191" height="157" viewBox="0 0 191 157" fill="none" xmlns="http://www.w3.org/2000/svg">
<g clip-path="url(#clip0_106_232)">
<path d="M167.64 22.34L154.87 34.47L135.72 33.83L190.3 2.87L145.93 12.76L123.91 20.42L136.36 10.53L113.06 17.23L107.95 22.34L91.6699 19.47L139.23 0L90.3899 7.66L73.2999 12.77L69.6399 16.6L40.9299 17.88L82.4099 0C82.4099 0 21.4499 15.64 20.8099 16.6C20.1699 17.56 7.41992 30.64 7.41992 30.64L13.3799 54.72L11.7899 66.94L14.9499 66.67L19.9699 61.78L28.4099 51.19L35.2599 47.12L67.4699 57.71L80.2399 75.91L77.6799 107.61H85.3999L98.8599 115.8L132.85 102.35L104.12 105.33L106.99 102.35L157.1 73.29L119.76 82.05L108.59 77.24L114.65 71.49L136.99 67.34L164.44 56.49H133.48L132.84 48.51L161.25 45L167.63 22.34H167.64Z" fill="#E2462C"/>
<path d="M9.00992 143.35L8.85992 129.59L7.41992 127.99L8.28992 142.01L9.00992 143.35Z" fill="#F7F3EF"/>
<path d="M11.5499 147L12.8599 149.44L13.7799 135.81L11.3999 133.16L11.5499 147Z" fill="#F7F3EF"/>
<path d="M20.8098 140.44L17.1198 139.51L16.5798 138.91L15.5898 153.56L19.8198 154.57L20.8098 140.44Z" fill="#F7F3EF"/>
<path d="M23.7598 141.18L22.7798 155.28L27.6798 156.45L30.0298 155.98V142.76L23.7598 141.18Z" fill="#F7F3EF"/>
<path d="M33.0298 155.37L43.0498 153.33L42.3398 143.32L33.0298 143.12V155.37Z" fill="#F7F3EF"/>
<path d="M46.0101 152.72L54.1901 151.06L53.6401 143.35H45.3501L46.0101 152.72Z" fill="#F7F3EF"/>
<path d="M56.6499 143.43L57.1599 150.46L57.8299 150.32L61.9099 143.67L56.6499 143.43Z" fill="#F7F3EF"/>
<path d="M7.74023 110.43V117.23L8.66023 118.26L9.26023 111.45L7.74023 110.43Z" fill="#F7F3EF"/>
<path d="M12.1102 113.36L11.4102 121.3L14.3302 124.55L15.7302 115.79L12.1102 113.36Z" fill="#F7F3EF"/>
<path d="M16.9102 127.42L18.7402 129.44L21.1002 130.04L22.2502 120.16L18.4802 117.63L16.9102 127.42Z" fill="#F7F3EF"/>
<path d="M25.1403 121.23L24.0303 130.77L30.1703 132.32L30.8903 122.46L25.1403 121.23Z" fill="#F7F3EF"/>
<path d="M33.8501 123.04L33.1401 132.74L42.3001 132.94L42.6501 124.68L33.8501 123.04Z" fill="#F7F3EF"/>
<path d="M45.3003 132.97H53.4803L53.2703 126.65L45.6303 125.23L45.3003 132.97Z" fill="#F7F3EF"/>
<path d="M56.29 127.21L56.48 133.03L63.63 133.37L65.91 128.99L56.29 127.21Z" fill="#F7F3EF"/>
<path d="M86.9 97.14L80.88 56.14L50.13 37.65H37.65L4.01 66.17L8.69 89.12L0 95.14L6.46 101.38L6.3 105.86L24.44 118.03L34.07 120.08L68.72 126.48L70.86 120.78L79.33 117.66L75.76 108.52L86.9 97.16V97.14ZM32.48 112.57L29.59 112.95L27.67 110.28L29.27 107.61L32.48 108.4V112.57ZM29.77 100.11L18.37 102.36L10.57 93.96V82.77L19.57 65.77L27.52 63.97L35.04 66.52L37.22 79.26V89.61L29.78 100.11H29.77ZM37.87 114.35L35.58 112L36.43 110.29L39.83 109.13L40.94 113.24L37.87 114.35ZM70.3 110.17L65.05 115.8L55.42 115.05L46.04 108.37L42.16 101.3V92.17L47.16 82.04L55.91 73.29H66.02L72.03 79.42L73.28 92.8L70.28 110.18L70.3 110.17Z" fill="#F7F3EF"/>
</g>
<defs>
<clipPath id="clip0_106_232">
<rect width="190.3" height="156.45" fill="white"/>
</clipPath>
</defs>
</svg>
