<svg width="130" height="160" viewBox="0 0 130 160" fill="none" xmlns="http://www.w3.org/2000/svg">
<g clip-path="url(#clip0_106_278)">
<path d="M119.19 93.82L107.06 97.16L92.5402 91.92L92.3902 84.73C92.3902 84.73 98.5302 84.13 98.9802 83.95C99.4302 83.77 106.32 79.49 106.92 79.19C107.52 78.89 112.01 71.1 112.01 71.1L113.36 53.73L108.12 64.36L95.6902 73.49L91.9501 72.14L88.4702 65.37C88.4702 65.37 91.1602 61.08 90.8102 60.75C90.4602 60.41 89.1402 55.7 89.1402 55.7L91.6602 42.55L99.9102 43.24L104.45 37.18V20.52L98.9002 34.15L82.7402 37.18C82.7402 37.18 82.5702 41.39 82.5702 42.55C82.5702 43.71 81.0602 54.18 81.0602 54.18L72.3102 51.15L76.6902 45.93L73.3102 41.22L70.9702 29.1L82.9202 20.52L93.6902 22.88L87.8002 14.63L70.4702 21.36L66.7702 27.25L65.9302 39.7L60.8802 42.54L54.1502 39.19C54.1502 39.19 57.1802 20 56.3402 19.33C55.5002 18.66 51.6302 8.9 51.6302 8.9L59.0102 0C59.0102 0 46.5602 5.39 45.2102 6.56C43.8602 7.74 39.9902 12.96 39.9902 12.96C39.9902 12.96 48.4002 23.56 49.1102 24.07C49.8102 24.57 44.5402 35.18 44.5402 35.18C44.5402 35.18 36.1302 35.68 36.2902 35.18C36.4602 34.68 38.4802 30.97 38.4802 29.63C38.4802 28.29 39.4902 22.9 38.4802 22.39C37.4702 21.88 32.4202 14.98 32.4202 14.98L25.3502 3.37L25.8502 12.12C25.8502 12.12 30.3902 24.24 30.2302 26.26C30.0702 28.28 28.5502 28.95 28.0402 29.46C27.5402 29.96 26.1902 36.53 26.1902 36.53V44.94L22.9902 47.13L19.4602 45.78L18.4502 39.72L22.9902 31.98L12.7202 40.23L7.41016 51.67L9.00016 65.38L7.41016 77.6L10.5702 77.33L15.5902 72.44L23.4102 62.63L27.6702 63.5L40.9402 66.47C40.9402 66.47 54.8402 69.11 56.3302 69.44C57.1402 69.62 61.5702 70.73 65.4402 71.7L75.8702 86.57L73.3102 118.27H81.0302L86.9002 115.36L90.8102 113.01V107.93C90.8102 107.93 97.6302 108.08 98.6802 107.93C99.7302 107.78 109.46 106.73 109.46 106.73L118.89 101.64L129.97 90.26L119.19 93.81V93.82Z" fill="#E2462C"/>
<path d="M9.00992 146.62L8.85992 132.87L7.41992 131.27L8.28992 145.29L9.00992 146.62Z" fill="#F7F3EF"/>
<path d="M11.5499 150.28L12.8599 152.71L13.7799 139.08L11.3999 136.43L11.5499 150.28Z" fill="#F7F3EF"/>
<path d="M20.8098 143.72L17.1198 142.79L16.5798 142.19L15.5898 156.83L19.8198 157.85L20.8098 143.72Z" fill="#F7F3EF"/>
<path d="M23.7598 144.46L22.7798 158.55L27.6798 159.73L30.0298 159.25V146.04L23.7598 144.46Z" fill="#F7F3EF"/>
<path d="M33.0298 158.64L43.0498 156.6L42.3398 146.6L33.0298 146.4V158.64Z" fill="#F7F3EF"/>
<path d="M46.0101 156L54.1901 154.34L53.6401 146.63H45.3501L46.0101 156Z" fill="#F7F3EF"/>
<path d="M56.6499 146.7L57.1599 153.73L57.8299 153.6L61.9099 146.95L56.6499 146.7Z" fill="#F7F3EF"/>
<path d="M7.74023 121.08V127.89L8.66023 128.92L9.26023 122.11L7.74023 121.08Z" fill="#F7F3EF"/>
<path d="M12.1102 124.01L11.4102 131.96L14.3302 135.21L15.7302 126.45L12.1102 124.01Z" fill="#F7F3EF"/>
<path d="M16.9102 138.08L18.7402 140.1L21.1002 140.7L22.2502 130.82L18.4802 128.29L16.9102 138.08Z" fill="#F7F3EF"/>
<path d="M25.1403 131.89L24.0303 141.43L30.1703 142.98L30.8903 133.12L25.1403 131.89Z" fill="#F7F3EF"/>
<path d="M33.8501 133.7L33.1401 143.4L42.3001 143.6L42.6501 135.34L33.8501 133.7Z" fill="#F7F3EF"/>
<path d="M45.3003 143.63H53.4803L53.2703 137.31L45.6303 135.89L45.3003 143.63Z" fill="#F7F3EF"/>
<path d="M56.29 137.87L56.48 143.69L63.63 144.03L65.91 139.65L56.29 137.87Z" fill="#F7F3EF"/>
<path d="M86.9 107.8L80.88 66.8001L50.13 48.3101H37.65L4.01 76.8301L8.69 99.7801L0 105.8L6.46 112.04L6.3 116.52L24.44 128.69L34.07 130.74L68.72 137.14L70.86 131.44L79.33 128.32L75.76 119.18L86.9 107.82V107.8ZM32.48 123.23L29.59 123.61L27.67 120.94L29.27 118.27L32.48 119.06V123.23ZM29.77 110.76L18.37 113.01L10.57 104.61V93.4201L19.57 76.4201L27.52 74.6201L35.04 77.1701L37.22 89.9101V100.26L29.78 110.76H29.77ZM37.87 125.01L35.58 122.66L36.43 120.95L39.83 119.79L40.94 123.9L37.87 125.01ZM70.3 120.83L65.05 126.46L55.42 125.71L46.04 119.03L42.16 111.96V102.83L47.16 92.7001L55.91 83.9501H66.02L72.03 90.0801L73.28 103.46L70.28 120.84L70.3 120.83Z" fill="#F7F3EF"/>
</g>
<defs>
<clipPath id="clip0_106_278">
<rect width="129.97" height="159.73" fill="white"/>
</clipPath>
</defs>
</svg>
