<svg width="147" height="173" viewBox="0 0 147 173" fill="none" xmlns="http://www.w3.org/2000/svg">
<g clip-path="url(#clip0_106_301)">
<path d="M136.3 113.83L146.81 87.78L131.5 104.01L110.29 101.34L107.71 89.04L129.47 92.58C129.47 92.58 132.24 83.36 132.42 83.26C132.6 83.16 143.48 65.47 143.48 65.47L121.17 59.57L130.21 64.36L127.08 75.06L105.87 70.08C105.87 70.08 100.34 59.94 99.97 59.38C99.6 58.83 108.27 43.52 108.27 43.52L134.45 21.21L103.1 31.54L90.19 44.08L84.84 43.34L90.19 32.09L85.95 22.5L82.26 0L80.23 5.72L78.2 30.43L72.11 43.15L62.33 29.04L65.71 2.48L50.82 18.46L49.28 28.59L42.37 42.77L32.32 34.89L44.88 9.46L23.68 26.79L17.17 36.24V58.3L8.85 54.25L0 39.62V58.3L14.46 74L12.87 86.22L16.03 85.95L21.05 81.06L24.9 76.23L34.59 72.28C34.59 72.28 52.78 72.65 63.35 75.27L68.55 76.98L81.32 95.18L78.76 126.88H86.48L87.22 126.51L88.34 126.88L101.45 129.55L109.93 135.07L126.89 126.88L100.71 123.54L105.14 110.63L136.3 113.82V113.83Z" fill="#E2462C"/>
<path d="M10.4499 159.87L10.2999 146.11L8.85986 144.51L9.72986 158.53L10.4499 159.87Z" fill="#F7F3EF"/>
<path d="M12.9898 163.52L14.2998 165.96L15.2198 152.33L12.8398 149.68L12.9898 163.52Z" fill="#F7F3EF"/>
<path d="M22.2498 156.96L18.5598 156.03L18.0198 155.43L17.0298 170.08L21.2598 171.09L22.2498 156.96Z" fill="#F7F3EF"/>
<path d="M25.1997 157.7L24.2197 171.8L29.1197 172.97L31.4697 172.5V159.28L25.1997 157.7Z" fill="#F7F3EF"/>
<path d="M34.4697 171.89L44.4897 169.85L43.7797 159.84L34.4697 159.64V171.89Z" fill="#F7F3EF"/>
<path d="M47.45 169.24L55.63 167.58L55.08 159.87H46.79L47.45 169.24Z" fill="#F7F3EF"/>
<path d="M58.0898 159.95L58.5998 166.98L59.2698 166.84L63.3498 160.19L58.0898 159.95Z" fill="#F7F3EF"/>
<path d="M9.18018 129.71V136.51L10.1002 137.54L10.7002 130.73L9.18018 129.71Z" fill="#F7F3EF"/>
<path d="M13.5501 132.64L12.8501 140.58L15.7701 143.83L17.1701 135.07L13.5501 132.64Z" fill="#F7F3EF"/>
<path d="M18.3604 146.7L20.1804 148.72L22.5404 149.32L23.6904 139.44L19.9204 136.91L18.3604 146.7Z" fill="#F7F3EF"/>
<path d="M26.5802 140.51L25.4702 150.05L31.6102 151.6L32.3302 141.74L26.5802 140.51Z" fill="#F7F3EF"/>
<path d="M35.2901 142.32L34.5801 152.02L43.7401 152.22L44.0901 143.96L35.2901 142.32Z" fill="#F7F3EF"/>
<path d="M46.7402 152.25H54.9202L54.7102 145.93L47.0702 144.51L46.7402 152.25Z" fill="#F7F3EF"/>
<path d="M57.73 146.49L57.92 152.31L65.07 152.65L67.35 148.27L57.73 146.49Z" fill="#F7F3EF"/>
<path d="M88.3399 116.42L82.3199 75.4201L51.5699 56.9301H39.0899L5.44994 85.4501L10.1299 108.4L1.43994 114.42L7.89994 120.66L7.73994 125.14L25.8799 137.31L35.5099 139.36L70.1599 145.76L72.2999 140.06L80.7699 136.94L77.1999 127.8L88.3399 116.44V116.42ZM33.9199 131.85L31.0299 132.23L29.1099 129.56L30.7099 126.89L33.9199 127.68V131.85ZM31.2099 119.39L19.8099 121.64L12.0099 113.24V102.05L21.0099 85.0501L28.9599 83.2501L36.4799 85.8001L38.6599 98.5401V108.89L31.2199 119.39H31.2099ZM39.3099 133.63L37.0199 131.28L37.8699 129.57L41.2699 128.41L42.3799 132.52L39.3099 133.63ZM71.7399 129.45L66.4899 135.08L56.8599 134.33L47.4799 127.65L43.5999 120.58V111.45L48.5999 101.32L57.3499 92.5701H67.4599L73.4699 98.7001L74.7199 112.08L71.7199 129.46L71.7399 129.45Z" fill="#F7F3EF"/>
</g>
<defs>
<clipPath id="clip0_106_301">
<rect width="146.81" height="172.97" fill="white"/>
</clipPath>
</defs>
</svg>
