<svg width="87" height="112" viewBox="0 0 87 112" fill="none" xmlns="http://www.w3.org/2000/svg">
<g clip-path="url(#clip0_106_165)">
<path d="M9.00992 98.32L8.85992 84.56L7.41992 82.96L8.28992 96.98L9.00992 98.32Z" fill="#F7F3EF"/>
<path d="M11.5499 101.97L12.8599 104.41L13.7799 90.78L11.3999 88.13L11.5499 101.97Z" fill="#F7F3EF"/>
<path d="M20.8098 95.41L17.1198 94.48L16.5798 93.88L15.5898 108.53L19.8198 109.54L20.8098 95.41Z" fill="#F7F3EF"/>
<path d="M23.7598 96.1499L22.7798 110.25L27.6798 111.42L30.0298 110.95V97.7299L23.7598 96.1499Z" fill="#F7F3EF"/>
<path d="M33.0298 110.34L43.0498 108.3L42.3398 98.29L33.0298 98.09V110.34Z" fill="#F7F3EF"/>
<path d="M46.0101 107.69L54.1901 106.03L53.6401 98.3199H45.3501L46.0101 107.69Z" fill="#F7F3EF"/>
<path d="M56.6499 98.3999L57.1599 105.43L57.8299 105.29L61.9099 98.6399L56.6499 98.3999Z" fill="#F7F3EF"/>
<path d="M7.74023 72.78V79.58L8.66023 80.61L9.26023 73.8L7.74023 72.78Z" fill="#F7F3EF"/>
<path d="M12.1102 75.7101L11.4102 83.6501L14.3302 86.9101L15.7302 78.1401L12.1102 75.7101Z" fill="#F7F3EF"/>
<path d="M16.9102 89.77L18.7402 91.8L21.1002 92.39L22.2502 82.51L18.4802 79.98L16.9102 89.77Z" fill="#F7F3EF"/>
<path d="M25.1403 83.5901L24.0303 93.1301L30.1703 94.6701L30.8903 84.8101L25.1403 83.5901Z" fill="#F7F3EF"/>
<path d="M33.8501 85.4L33.1401 95.09L42.3001 95.29L42.6501 87.03L33.8501 85.4Z" fill="#F7F3EF"/>
<path d="M45.3003 95.3201H53.4803L53.2703 89.0001L45.6303 87.5801L45.3003 95.3201Z" fill="#F7F3EF"/>
<path d="M56.29 89.5601L56.48 95.3901L63.63 95.7201L65.91 91.3501L56.29 89.5601Z" fill="#F7F3EF"/>
<path d="M86.9 59.49L80.88 18.49L50.14 0H37.66L4.01 28.52L8.69 51.47L0 57.49L6.46 63.73L6.3 68.21L24.44 80.38L34.07 82.43L68.72 88.83L70.86 83.13L79.33 80.01L75.76 70.87L86.9 59.51V59.49ZM32.48 74.92L29.59 75.3L27.67 72.63L29.27 69.96L32.48 70.75V74.92ZM29.77 62.46L18.37 64.71L10.57 56.31V45.12L19.57 28.12L27.52 26.32L35.04 28.87L37.22 41.61V51.96L29.78 62.46H29.77ZM37.87 76.7L35.58 74.35L36.43 72.64L39.83 71.48L40.94 75.59L37.87 76.7ZM70.3 72.53L65.05 78.16L55.42 77.41L46.04 70.73L42.16 63.66V54.53L47.16 44.4L55.91 35.65H66.02L72.03 41.78L73.28 55.16L70.28 72.54L70.3 72.53Z" fill="#F7F3EF"/>
</g>
<defs>
<clipPath id="clip0_106_165">
<rect width="86.9" height="111.42" fill="white"/>
</clipPath>
</defs>
</svg>
