<svg width="121" height="160" viewBox="0 0 121 160" fill="none" xmlns="http://www.w3.org/2000/svg">
<g clip-path="url(#clip0_106_255)">
<path d="M113.92 94.93C113.92 95.78 98.1402 92.96 98.1402 92.96L99.8302 84.51L111.94 80.97L117.86 43.1L107.44 67.33L101.52 69.3L97.5802 57.19L107.44 45.33L104.9 35.5L103.21 21.13L97.8602 31.2V42.82L95.4102 51.66L86.9002 38.59L88.2802 25.07L104.9 7.6L78.9802 14.92L78.4202 27.03L65.9102 31.19L61.1002 25.91L65.9102 14.36L91.1002 0L61.1002 5.35L49.3902 18.31V29.58L40.9402 32.61L43.4502 25.64L27.6702 2.82L33.0302 27.61L26.4002 35.52L19.5802 43.38L11.4002 39.58L12.5802 16.15L7.73023 33.74L2.99023 45.33L13.6102 62.4L12.0202 74.62L15.1802 74.35L20.2002 69.46L28.6402 58.87L38.2602 57.75L46.8702 58.53L58.9902 62.52L71.1202 70.26L73.6202 73.82L74.4802 79.72L80.0502 88.74L77.9002 115.29H84.1502L92.2202 119.41L104.05 122.02L114.47 110.03L120.39 80.97C120.39 80.97 113.91 94.09 113.91 94.93H113.92Z" fill="#E2462C"/>
<path d="M9.00992 146.08L8.85992 132.32L7.41992 130.72L8.28992 144.74L9.00992 146.08Z" fill="#F7F3EF"/>
<path d="M11.5499 149.73L12.8599 152.17L13.7799 138.54L11.3999 135.89L11.5499 149.73Z" fill="#F7F3EF"/>
<path d="M20.8098 143.17L17.1198 142.25L16.5798 141.64L15.5898 156.29L19.8198 157.3L20.8098 143.17Z" fill="#F7F3EF"/>
<path d="M23.7598 143.92L22.7798 158.01L27.6798 159.19L30.0298 158.71V145.49L23.7598 143.92Z" fill="#F7F3EF"/>
<path d="M33.0298 158.1L43.0498 156.06L42.3398 146.05L33.0298 145.85V158.1Z" fill="#F7F3EF"/>
<path d="M46.0101 155.46L54.1901 153.79L53.6401 146.08H45.3501L46.0101 155.46Z" fill="#F7F3EF"/>
<path d="M56.6499 146.16L57.1599 153.19L57.8299 153.05L61.9099 146.41L56.6499 146.16Z" fill="#F7F3EF"/>
<path d="M7.74023 118.1V124.91L8.66023 125.94L9.26023 119.13L7.74023 118.1Z" fill="#F7F3EF"/>
<path d="M12.1102 121.04L11.4102 128.98L14.3302 132.23L15.7302 123.47L12.1102 121.04Z" fill="#F7F3EF"/>
<path d="M16.9102 135.1L18.7402 137.12L21.1002 137.72L22.2502 127.84L18.4802 125.31L16.9102 135.1Z" fill="#F7F3EF"/>
<path d="M25.1403 128.91L24.0303 138.45L30.1703 140L30.8903 130.14L25.1403 128.91Z" fill="#F7F3EF"/>
<path d="M33.8501 130.72L33.1401 140.42L42.3001 140.62L42.6501 132.36L33.8501 130.72Z" fill="#F7F3EF"/>
<path d="M45.3003 140.65H53.4803L53.2703 134.33L45.6303 132.91L45.3003 140.65Z" fill="#F7F3EF"/>
<path d="M56.29 134.89L56.48 140.71L63.63 141.05L65.91 136.67L56.29 134.89Z" fill="#F7F3EF"/>
<path d="M86.9 104.82L80.88 63.82L50.13 45.33H37.65L4.01 73.85L8.69 96.8L0 102.82L6.46 109.06L6.3 113.54L24.44 125.71L34.07 127.76L68.72 134.16L70.86 128.46L79.33 125.34L75.76 116.2L86.9 104.84V104.82ZM32.48 120.25L29.59 120.63L27.67 117.96L29.27 115.29L32.48 116.08V120.25ZM29.77 107.79L18.37 110.04L10.57 101.64V90.45L19.57 73.45L27.52 71.65L35.04 74.2L37.22 86.94V97.29L29.78 107.79H29.77ZM37.87 122.03L35.58 119.68L36.43 117.97L39.83 116.81L40.94 120.92L37.87 122.03ZM70.3 117.85L65.05 123.48L55.42 122.73L46.04 116.05L42.16 108.98V99.85L47.16 89.72L55.91 80.97H66.02L72.03 87.1L73.28 100.48L70.28 117.86L70.3 117.85Z" fill="#F7F3EF"/>
</g>
<defs>
<clipPath id="clip0_106_255">
<rect width="120.4" height="159.19" fill="white"/>
</clipPath>
</defs>
</svg>
