<svg width="95" height="126" viewBox="0 0 95 126" fill="none" xmlns="http://www.w3.org/2000/svg">
<g clip-path="url(#clip0_106_324)">
<path d="M21.9002 102.27L16.4502 100.22L17.2602 109.34L21.9002 112.39V102.27Z" fill="#F7F3EF"/>
<path d="M47.7301 125.47L47.4601 109.73L42.2601 109.94L39.5101 108.91L39.3701 123.88L42.0601 125.65L47.7301 125.47Z" fill="#F7F3EF"/>
<path d="M55.38 109.41L49.96 109.63L50.22 125.39L56.07 125.2L56.71 124.68L55.38 109.41Z" fill="#F7F3EF"/>
<path d="M63.0103 119.67L62.3403 106.97L57.8403 108.91L59.0603 122.82L63.0103 119.67Z" fill="#F7F3EF"/>
<path d="M65.41 117.76L70.86 113.42L70.52 103.45L64.79 105.91L65.41 117.76Z" fill="#F7F3EF"/>
<path d="M72.98 102.38L73.3 111.48L78.38 107.44L79.67 99.5L72.98 102.38Z" fill="#F7F3EF"/>
<path d="M32.9004 106.42V119.58L36.8804 122.23L37.0204 107.97L32.9004 106.42Z" fill="#F7F3EF"/>
<path d="M24.4004 103.22V114.03L30.4004 117.94V105.48L24.4004 103.22Z" fill="#F7F3EF"/>
<path d="M24.3498 91.07L30.2798 93.3C30.1098 90.92 29.8198 86.77 29.5798 83.45L23.7798 81.5L24.3498 91.07Z" fill="#F7F3EF"/>
<path d="M39.3799 86.7301L39.5199 96.7901L42.6699 97.9801L47.3899 97.7801L46.9399 86.7301H39.3799Z" fill="#F7F3EF"/>
<path d="M49.8897 97.6801L55.1597 97.4701L54.1897 86.7301H49.4497L49.8897 97.6801Z" fill="#F7F3EF"/>
<path d="M62.2199 94.85L61.8999 84.66L56.6699 86.36L57.6099 96.83L62.2199 94.85Z" fill="#F7F3EF"/>
<path d="M71.0499 81.7001L64.3799 83.8601L64.6799 93.7901L70.4999 91.2801L71.0499 81.7001Z" fill="#F7F3EF"/>
<path d="M73.5998 80.87L73.0698 90.18L80.0798 87.15L80.7598 78.55L73.5998 80.87Z" fill="#F7F3EF"/>
<path d="M32.8396 94.2701L36.9996 95.8401L36.8696 85.9101L32.1396 84.3201L32.8396 94.2701Z" fill="#F7F3EF"/>
<path d="M21.7899 90.1101L21.2199 80.6401L15.1099 78.5901L16.1799 88.0001L21.7899 90.1101Z" fill="#F7F3EF"/>
<path d="M10.48 70.05L12.32 73.95L39.74 83.18H55.13L82.9 75.31L85.57 70.05L94.1 64.79L85.08 60.86L92.88 29.78L75.08 4.67L48.64 0L24.86 4.67L2.44 30.03L9.75 60.87L0 67.09L10.48 70.06V70.05ZM54.59 35.73L59.48 30.58L69.48 28.8L81.26 42.74V60.06L73.48 69.03H59.48L53.48 63.47L50.59 50.58L54.59 35.73ZM50.59 71.56L54.08 72.47V74.17L53.29 76.78H50.59L48.99 74.17L50.59 71.56ZM45.7 75.79L41.31 76.77L39.24 74.17L41.31 71.56L45.7 72.72V75.79ZM15.02 42.74L26.8 28.8L36.8 30.58L41.69 35.73L45.69 50.58L42.8 63.47L36.8 69.03H22.8L15.02 60.06V42.74Z" fill="#F7F3EF"/>
</g>
<defs>
<clipPath id="clip0_106_324">
<rect width="94.1" height="125.65" fill="white"/>
</clipPath>
</defs>
</svg>
