<svg width="95" height="117" viewBox="0 0 95 117" fill="none" xmlns="http://www.w3.org/2000/svg">
<g clip-path="url(#clip0_106_50)">
<path d="M21.9002 92.82L16.4502 90.77L17.2602 99.89L21.9002 102.94V92.82Z" fill="#F7F3EF"/>
<path d="M47.7301 116.02L47.4601 100.28L42.2601 100.49L39.5101 99.4601L39.3701 114.43L42.0601 116.2L47.7301 116.02Z" fill="#F7F3EF"/>
<path d="M55.38 99.9601L49.96 100.18L50.22 115.94L56.07 115.75L56.71 115.23L55.38 99.9601Z" fill="#F7F3EF"/>
<path d="M63.0103 110.22L62.3403 97.52L57.8403 99.46L59.0603 113.37L63.0103 110.22Z" fill="#F7F3EF"/>
<path d="M65.41 108.31L70.86 103.97L70.52 94L64.79 96.46L65.41 108.31Z" fill="#F7F3EF"/>
<path d="M72.98 92.93L73.3 102.03L78.38 97.99L79.67 90.05L72.98 92.93Z" fill="#F7F3EF"/>
<path d="M32.9004 96.9701V110.13L36.8804 112.78L37.0204 98.5201L32.9004 96.9701Z" fill="#F7F3EF"/>
<path d="M24.4004 93.77V104.58L30.4004 108.49V96.03L24.4004 93.77Z" fill="#F7F3EF"/>
<path d="M24.3498 91.07L30.2798 93.3C30.1098 90.92 29.8198 86.77 29.5798 83.45L23.7798 81.5L24.3498 91.07Z" fill="#F7F3EF"/>
<path d="M39.3799 86.7301L39.5199 96.7901L42.6699 97.9801L47.3899 97.7801L46.9399 86.7301H39.3799Z" fill="#F7F3EF"/>
<path d="M49.8897 97.6801L55.1597 97.4701L54.1897 86.7301H49.4497L49.8897 97.6801Z" fill="#F7F3EF"/>
<path d="M62.2199 94.85L61.8999 84.66L56.6699 86.36L57.6099 96.83L62.2199 94.85Z" fill="#F7F3EF"/>
<path d="M71.0499 81.7001L64.3799 83.8601L64.6799 93.7901L70.4999 91.2801L71.0499 81.7001Z" fill="#F7F3EF"/>
<path d="M73.5998 80.87L73.0698 90.18L80.0798 87.15L80.7598 78.55L73.5998 80.87Z" fill="#F7F3EF"/>
<path d="M32.8396 94.2701L36.9996 95.8401L36.8696 85.9101L32.1396 84.3201L32.8396 94.2701Z" fill="#F7F3EF"/>
<path d="M21.7899 90.1101L21.2199 80.6401L15.1099 78.5901L16.1799 88.0001L21.7899 90.1101Z" fill="#F7F3EF"/>
<path d="M10.48 70.05L12.32 73.95L39.74 83.18H55.13L82.9 75.31L85.57 70.05L94.1 64.79L85.08 60.86L92.88 29.78L75.08 4.67L48.64 0L24.86 4.67L2.44 30.03L9.75 60.87L0 67.09L10.48 70.06V70.05ZM54.59 35.73L59.48 30.58L69.48 28.8L81.26 42.74V60.06L73.48 69.03H59.48L53.48 63.47L50.59 50.58L54.59 35.73ZM50.59 71.56L54.08 72.47V74.17L53.29 76.78H50.59L48.99 74.17L50.59 71.56ZM45.7 75.79L41.31 76.77L39.24 74.17L41.31 71.56L45.7 72.72V75.79ZM15.02 42.74L26.8 28.8L36.8 30.58L41.69 35.73L45.69 50.58L42.8 63.47L36.8 69.03H22.8L15.02 60.06V42.74Z" fill="#F7F3EF"/>
</g>
<defs>
<clipPath id="clip0_106_50">
<rect width="94.1" height="116.2" fill="white"/>
</clipPath>
</defs>
</svg>
