<svg width="128" height="175" viewBox="0 0 128 175" fill="none" xmlns="http://www.w3.org/2000/svg">
<g clip-path="url(#clip0_106_186)">
<path d="M127.9 60.93L117.36 81.04L107.83 69.97L114.33 41.91L99.26 4.24L103.64 33.9L101.14 45.67L84.66 46.14L88.43 30.13L79.01 0V32.49L67.5 38.09L57.99 37.58L53.57 26.83L57.99 5.08L43.8 21.65L41.36 40.13L29.99 43.66L22 17.89L20.81 53.92L15.96 69.57L7.51 70.91L10.15 43.19L0 62.09L2.85 86.7L11.04 94.74L11.49 100.93L17.54 106.71L21.05 96.28L25.17 84.57L31.5 70.14L33.55 68.56L44.71 66.06L60.1 67.87L81.18 77.94C81.18 77.94 89.74 89.3 89.8 90.34C89.86 91.38 95.16 108.16 95.16 108.16L101.88 101.96L103.02 100.4L123.38 97.37L127.9 60.93Z" fill="#E2462C"/>
<path d="M31.4397 150.92L25.9897 148.86L26.8097 157.98L31.4397 161.03V150.92Z" fill="#F7F3EF"/>
<path d="M57.2697 174.11L57.0097 158.37L51.8097 158.58L49.0497 157.55L48.9097 172.52L51.6097 174.29L57.2697 174.11Z" fill="#F7F3EF"/>
<path d="M64.9198 158.05L59.5098 158.27L59.7698 174.03L65.6098 173.84L66.2598 173.33L64.9198 158.05Z" fill="#F7F3EF"/>
<path d="M72.5497 168.31L71.8796 155.61L67.3896 157.55L68.5996 171.46L72.5497 168.31Z" fill="#F7F3EF"/>
<path d="M74.9596 166.4L80.4096 162.06L80.0596 152.09L74.3296 154.56L74.9596 166.4Z" fill="#F7F3EF"/>
<path d="M82.5298 151.03L82.8398 160.12L87.9198 156.08L89.2098 148.15L82.5298 151.03Z" fill="#F7F3EF"/>
<path d="M42.4399 155.06V168.22L46.4299 170.87L46.5599 156.61L42.4399 155.06Z" fill="#F7F3EF"/>
<path d="M33.9399 151.86V162.67L39.9399 166.58V154.12L33.9399 151.86Z" fill="#F7F3EF"/>
<path d="M33.8898 146.85L39.8198 149.08C39.6498 146.7 39.3598 142.55 39.1198 139.23L33.3198 137.28L33.8898 146.85Z" fill="#F7F3EF"/>
<path d="M48.9297 142.51L49.0597 152.57L52.2097 153.75L56.9397 153.56L56.4897 142.51H48.9297Z" fill="#F7F3EF"/>
<path d="M59.4297 153.46L64.6997 153.25L63.7397 142.51H58.9897L59.4297 153.46Z" fill="#F7F3EF"/>
<path d="M71.7595 150.63L71.4395 140.44L66.2095 142.14L67.1495 152.61L71.7595 150.63Z" fill="#F7F3EF"/>
<path d="M80.5894 137.48L73.9194 139.64L74.2294 149.56L80.0394 147.06L80.5894 137.48Z" fill="#F7F3EF"/>
<path d="M83.1399 136.65L82.6099 145.95L89.6199 142.93L90.2999 134.33L83.1399 136.65Z" fill="#F7F3EF"/>
<path d="M42.3797 150.05L46.5497 151.62L46.4197 141.69L41.6797 140.1L42.3797 150.05Z" fill="#F7F3EF"/>
<path d="M31.3297 145.89L30.7597 136.42L24.6597 134.36L25.7197 143.78L31.3297 145.89Z" fill="#F7F3EF"/>
<path d="M20.0198 125.83L21.8598 129.73L49.2798 138.96H64.6698L92.4398 131.09L95.1098 125.83L103.64 120.57L94.6198 116.64L102.42 85.56L84.6198 60.45L58.1798 55.78L34.3998 60.45L11.9698 85.8L19.2798 116.64L9.52979 122.86L20.0098 125.83H20.0198ZM64.1298 91.51L69.0198 86.36L79.0198 84.58L90.7998 98.52V115.84L83.0198 124.81H69.0198L63.0198 119.25L60.1298 106.36L64.1298 91.51ZM60.1298 127.34L63.6198 128.25V129.95L62.8298 132.56H60.1298L58.5298 129.95L60.1298 127.34ZM55.2398 131.57L50.8498 132.55L48.7798 129.95L50.8498 127.34L55.2398 128.5V131.57ZM24.5698 98.52L36.3498 84.58L46.3498 86.36L51.2398 91.51L55.2398 106.36L52.3498 119.25L46.3498 124.81H32.3498L24.5698 115.84V98.52Z" fill="#F7F3EF"/>
</g>
<defs>
<clipPath id="clip0_106_186">
<rect width="127.9" height="174.29" fill="white"/>
</clipPath>
</defs>
</svg>
