<svg width="95" height="121" viewBox="0 0 95 121" fill="none" xmlns="http://www.w3.org/2000/svg">
<g clip-path="url(#clip0_106_347)">
<path d="M21.9002 97.45L16.4502 95.4L17.2602 104.52L21.9002 107.56V97.45Z" fill="#F7F3EF"/>
<path d="M47.7301 120.65L47.4601 104.91L42.2601 105.12L39.5101 104.08L39.3701 119.06L42.0601 120.83L47.7301 120.65Z" fill="#F7F3EF"/>
<path d="M55.38 104.59L49.96 104.81L50.22 120.57L56.07 120.38L56.71 119.86L55.38 104.59Z" fill="#F7F3EF"/>
<path d="M63.0103 114.85L62.3403 102.15L57.8403 104.08L59.0603 117.99L63.0103 114.85Z" fill="#F7F3EF"/>
<path d="M65.41 112.94L70.86 108.6L70.52 98.6201L64.79 101.09L65.41 112.94Z" fill="#F7F3EF"/>
<path d="M72.98 97.5601L73.3 106.66L78.38 102.62L79.67 94.6801L72.98 97.5601Z" fill="#F7F3EF"/>
<path d="M32.9004 101.6V114.75L36.8804 117.41L37.0204 103.15L32.9004 101.6Z" fill="#F7F3EF"/>
<path d="M24.4004 98.39V109.2L30.4004 113.12V100.65L24.4004 98.39Z" fill="#F7F3EF"/>
<path d="M24.3498 91.07L30.2798 93.3C30.1098 90.92 29.8198 86.77 29.5798 83.45L23.7798 81.5L24.3498 91.07Z" fill="#F7F3EF"/>
<path d="M39.3799 86.7301L39.5199 96.7901L42.6699 97.9801L47.3899 97.7801L46.9399 86.7301H39.3799Z" fill="#F7F3EF"/>
<path d="M49.8897 97.6801L55.1597 97.4701L54.1897 86.7301H49.4497L49.8897 97.6801Z" fill="#F7F3EF"/>
<path d="M62.2199 94.85L61.8999 84.66L56.6699 86.36L57.6099 96.83L62.2199 94.85Z" fill="#F7F3EF"/>
<path d="M71.0499 81.7001L64.3799 83.8601L64.6799 93.7901L70.4999 91.2801L71.0499 81.7001Z" fill="#F7F3EF"/>
<path d="M73.5998 80.87L73.0698 90.18L80.0798 87.15L80.7598 78.55L73.5998 80.87Z" fill="#F7F3EF"/>
<path d="M32.8396 94.2701L36.9996 95.8401L36.8696 85.9101L32.1396 84.3201L32.8396 94.2701Z" fill="#F7F3EF"/>
<path d="M21.7899 90.1101L21.2199 80.6401L15.1099 78.5901L16.1799 88.0001L21.7899 90.1101Z" fill="#F7F3EF"/>
<path d="M10.48 70.05L12.32 73.95L39.74 83.18H55.13L82.9 75.31L85.57 70.05L94.1 64.79L85.08 60.86L92.88 29.78L75.08 4.67L48.64 0L24.86 4.67L2.44 30.03L9.75 60.87L0 67.09L10.48 70.06V70.05ZM54.59 35.73L59.48 30.58L69.48 28.8L81.26 42.74V60.06L73.48 69.03H59.48L53.48 63.47L50.59 50.58L54.59 35.73ZM50.59 71.56L54.08 72.47V74.17L53.29 76.78H50.59L48.99 74.17L50.59 71.56ZM45.7 75.79L41.31 76.77L39.24 74.17L41.31 71.56L45.7 72.72V75.79ZM15.02 42.74L26.8 28.8L36.8 30.58L41.69 35.73L45.69 50.58L42.8 63.47L36.8 69.03H22.8L15.02 60.06V42.74Z" fill="#F7F3EF"/>
</g>
<defs>
<clipPath id="clip0_106_347">
<rect width="94.1" height="120.83" fill="white"/>
</clipPath>
</defs>
</svg>
