<svg width="95" height="119" viewBox="0 0 95 119" fill="none" xmlns="http://www.w3.org/2000/svg">
<g clip-path="url(#clip0_106_2)">
<path d="M21.9002 95.14L16.4502 93.09L17.2602 102.2L21.9002 105.25V95.14Z" fill="#F7F3EF"/>
<path d="M47.7301 118.33L47.4601 102.6L42.2601 102.81L39.5101 101.77L39.3701 116.74L42.0601 118.52L47.7301 118.33Z" fill="#F7F3EF"/>
<path d="M55.38 102.28L49.96 102.5L50.22 118.25L56.07 118.06L56.71 117.55L55.38 102.28Z" fill="#F7F3EF"/>
<path d="M63.0103 112.53L62.3403 99.83L57.8403 101.77L59.0603 115.68L63.0103 112.53Z" fill="#F7F3EF"/>
<path d="M65.41 110.62L70.86 106.28L70.52 96.3099L64.79 98.7799L65.41 110.62Z" fill="#F7F3EF"/>
<path d="M72.98 95.25L73.3 104.34L78.38 100.3L79.67 92.37L72.98 95.25Z" fill="#F7F3EF"/>
<path d="M32.9004 99.28V112.44L36.8804 115.09L37.0204 100.83L32.9004 99.28Z" fill="#F7F3EF"/>
<path d="M24.4004 96.08V106.89L30.4004 110.8V98.34L24.4004 96.08Z" fill="#F7F3EF"/>
<path d="M24.3498 91.07L30.2798 93.3C30.1098 90.92 29.8198 86.77 29.5798 83.45L23.7798 81.5L24.3498 91.07Z" fill="#F7F3EF"/>
<path d="M39.3799 86.7301L39.5199 96.7901L42.6699 97.9801L47.3899 97.7801L46.9399 86.7301H39.3799Z" fill="#F7F3EF"/>
<path d="M49.8897 97.6801L55.1597 97.4701L54.1897 86.7301H49.4497L49.8897 97.6801Z" fill="#F7F3EF"/>
<path d="M62.2199 94.85L61.8999 84.66L56.6699 86.36L57.6099 96.83L62.2199 94.85Z" fill="#F7F3EF"/>
<path d="M71.0499 81.7001L64.3799 83.8601L64.6799 93.7901L70.4999 91.2801L71.0499 81.7001Z" fill="#F7F3EF"/>
<path d="M73.5998 80.87L73.0698 90.18L80.0798 87.15L80.7598 78.55L73.5998 80.87Z" fill="#F7F3EF"/>
<path d="M32.8396 94.2701L36.9996 95.8401L36.8696 85.9101L32.1396 84.3201L32.8396 94.2701Z" fill="#F7F3EF"/>
<path d="M21.7899 90.1101L21.2199 80.6401L15.1099 78.5901L16.1799 88.0001L21.7899 90.1101Z" fill="#F7F3EF"/>
<path d="M10.48 70.05L12.32 73.95L39.74 83.18H55.13L82.9 75.31L85.57 70.05L94.1 64.79L85.08 60.86L92.88 29.78L75.08 4.67L48.64 0L24.86 4.67L2.44 30.03L9.75 60.87L0 67.09L10.48 70.06V70.05ZM54.59 35.73L59.48 30.58L69.48 28.8L81.26 42.74V60.06L73.48 69.03H59.48L53.48 63.47L50.59 50.58L54.59 35.73ZM50.59 71.56L54.08 72.47V74.17L53.29 76.78H50.59L48.99 74.17L50.59 71.56ZM45.7 75.79L41.31 76.77L39.24 74.17L41.31 71.56L45.7 72.72V75.79ZM15.02 42.74L26.8 28.8L36.8 30.58L41.69 35.73L45.69 50.58L42.8 63.47L36.8 69.03H22.8L15.02 60.06V42.74Z" fill="#F7F3EF"/>
</g>
<defs>
<clipPath id="clip0_106_2">
<rect width="94.1" height="118.52" fill="white"/>
</clipPath>
</defs>
</svg>
