<svg width="148" height="183" viewBox="0 0 148 183" fill="none" xmlns="http://www.w3.org/2000/svg">
<g clip-path="url(#clip0_106_98)">
<path d="M129.02 102.89L127.37 90.09L147.85 75.02L139.59 38.02L137.28 69.4L119.63 68.41L106.8 59.44L118.13 51.56L114.14 26.45L134.98 5.51001L102.45 18.19L106.8 38.01L93.36 50.89L77.07 51.88L90.32 35.69C90.32 35.69 73.85 1.01001 73.25 0.0200067C72.65 -0.969993 75.49 30.08 75.49 30.08L67.99 48.58L52.55 50.56L39.82 39.99L67.99 18.19C67.99 18.19 34.86 25.79 34.64 26.78C34.42 27.77 19.34 50.9 19.34 50.9L21.65 64.33L7.11 57.51L7.44 30.75L0 64.56L8.52 92.35L26.34 96.96L27.03 106.45L33.08 112.23L36.59 101.8L40.71 90.09L47.58 74.42L64.91 74.02L83.88 77.32L105.53 96.66C106.46 100.2 110.71 113.68 110.71 113.68L116.98 107.89L125.39 117.3H142.24L147.86 81.62L139.93 102.88H129.03L129.02 102.89Z" fill="#E2462C"/>
<path d="M47.43 158.75L41.98 156.69L42.79 165.81L47.43 168.86V158.75Z" fill="#F7F3EF"/>
<path d="M73.2499 181.94L72.9899 166.2L67.7899 166.41L65.0399 165.38L64.8999 180.35L67.5899 182.12L73.2499 181.94Z" fill="#F7F3EF"/>
<path d="M80.9098 165.88L75.4897 166.1L75.7497 181.86L81.5897 181.67L82.2397 181.16L80.9098 165.88Z" fill="#F7F3EF"/>
<path d="M88.5401 176.14L87.8701 163.44L83.3701 165.38L84.5901 179.29L88.5401 176.14Z" fill="#F7F3EF"/>
<path d="M90.9401 174.23L96.3901 169.89L96.0501 159.92L90.3101 162.39L90.9401 174.23Z" fill="#F7F3EF"/>
<path d="M98.5098 158.86L98.8298 167.95L103.91 163.91L105.2 155.98L98.5098 158.86Z" fill="#F7F3EF"/>
<path d="M58.4302 162.89V176.05L62.4102 178.7L62.5502 164.44L58.4302 162.89Z" fill="#F7F3EF"/>
<path d="M49.9302 159.69V170.5L55.9302 174.41V161.95L49.9302 159.69Z" fill="#F7F3EF"/>
<path d="M49.8801 152.37L55.8101 154.6C55.6401 152.22 55.3501 148.07 55.1101 144.75L49.3101 142.8L49.8801 152.37Z" fill="#F7F3EF"/>
<path d="M64.9102 148.02L65.0502 158.08L68.2001 159.27L72.9202 159.08L72.4702 148.02H64.9102Z" fill="#F7F3EF"/>
<path d="M75.42 158.98L80.69 158.76L79.72 148.02H74.98L75.42 158.98Z" fill="#F7F3EF"/>
<path d="M87.7402 156.14L87.4302 145.96L82.2002 147.65L83.1402 158.13L87.7402 156.14Z" fill="#F7F3EF"/>
<path d="M96.5799 142.99L89.8999 145.16L90.2099 155.08L96.0299 152.57L96.5799 142.99Z" fill="#F7F3EF"/>
<path d="M99.1301 142.16L98.6001 151.47L105.61 148.45L106.29 139.84L99.1301 142.16Z" fill="#F7F3EF"/>
<path d="M58.3699 155.57L62.5299 157.14L62.3999 147.21L57.6699 145.61L58.3699 155.57Z" fill="#F7F3EF"/>
<path d="M47.3101 151.4L46.7501 141.94L40.6401 139.88L41.7101 149.29L47.3101 151.4Z" fill="#F7F3EF"/>
<path d="M36.01 131.34L37.85 135.24L65.27 144.47H80.66L108.43 136.6L111.1 131.34L119.63 126.08L110.61 122.15L118.41 91.07L100.61 65.96L74.17 61.29L50.39 65.96L27.96 91.31L35.27 122.15L25.52 128.37L36 131.34H36.01ZM80.12 97.02L85.01 91.87L95.01 90.09L106.79 104.03V121.35L99.01 130.32H85.01L79.01 124.76L76.12 111.87L80.12 97.02ZM76.12 132.85L79.61 133.76V135.46L78.82 138.07H76.12L74.52 135.46L76.12 132.85ZM71.23 137.08L66.84 138.06L64.77 135.46L66.84 132.85L71.23 134.01V137.08ZM40.55 104.03L52.33 90.09L62.33 91.87L67.22 97.02L71.22 111.87L68.33 124.76L62.33 130.32H48.33L40.55 121.35V104.03Z" fill="#F7F3EF"/>
</g>
<defs>
<clipPath id="clip0_106_98">
<rect width="147.85" height="182.12" fill="white"/>
</clipPath>
</defs>
</svg>
