<svg width="129" height="206" viewBox="0 0 129 206" fill="none" xmlns="http://www.w3.org/2000/svg">
<g clip-path="url(#clip0_106_25)">
<path d="M128.54 105.42L117.86 116.55L121.11 100.3L114.07 55.26L106.83 80.16L93.23 73.83L106.83 55.72L79.21 13.46L88.6 50.61L86.4 67.33L73.38 47.36L69.61 0L58.18 58.51L52.95 54.8L52.4 7.9L39.92 65.48L38.12 59.44L37.42 26.47L27.33 69.19L14.13 80.16L22.35 46.74L0 89.51L1.32 113.85L17.39 120.39L17.75 125.31L23.8 131.09L27.31 120.66L38.15 103.55C38.15 103.55 42.66 98.44 45.83 96.12C49 93.8 57.16 91.17 57.17 91.17L66.38 92.25L87.46 102.32C87.46 102.32 96.02 113.68 96.08 114.72C96.14 115.76 101.44 132.54 101.44 132.54L108.15 126.34L108.18 126.3H121.59L128.56 105.42H128.54Z" fill="#E2462C"/>
<path d="M37.43 182.43L31.98 180.38L32.8 189.5L37.43 192.55V182.43Z" fill="#F7F3EF"/>
<path d="M63.2599 205.63L62.9999 189.89L57.7999 190.1L55.0399 189.07L54.8999 204.04L57.5999 205.81L63.2599 205.63Z" fill="#F7F3EF"/>
<path d="M70.91 189.57L65.5 189.79L65.76 205.55L71.6 205.36L72.25 204.84L70.91 189.57Z" fill="#F7F3EF"/>
<path d="M78.5499 199.83L77.8699 187.13L73.3799 189.07L74.5899 202.98L78.5499 199.83Z" fill="#F7F3EF"/>
<path d="M80.9498 197.92L86.3998 193.58L86.0498 183.61L80.3198 186.07L80.9498 197.92Z" fill="#F7F3EF"/>
<path d="M88.52 182.54L88.83 191.64L93.91 187.6L95.2 179.66L88.52 182.54Z" fill="#F7F3EF"/>
<path d="M48.4302 186.58V199.74L52.4202 202.39L52.5502 188.13L48.4302 186.58Z" fill="#F7F3EF"/>
<path d="M39.9302 183.37V194.19L45.9302 198.1V185.64L39.9302 183.37Z" fill="#F7F3EF"/>
<path d="M39.8801 171.23L45.8101 173.46C45.6401 171.08 45.3501 166.93 45.1101 163.61L39.3101 161.66L39.8801 171.23Z" fill="#F7F3EF"/>
<path d="M54.9199 166.89L55.0499 176.95L58.1999 178.13L62.9299 177.94L62.4799 166.89H54.9199Z" fill="#F7F3EF"/>
<path d="M65.42 177.84L70.69 177.63L69.73 166.89H64.98L65.42 177.84Z" fill="#F7F3EF"/>
<path d="M77.7497 175.01L77.4297 164.82L72.1997 166.52L73.1397 176.99L77.7497 175.01Z" fill="#F7F3EF"/>
<path d="M86.5797 161.86L79.9097 164.02L80.2197 173.95L86.0297 171.44L86.5797 161.86Z" fill="#F7F3EF"/>
<path d="M89.1301 161.03L88.6001 170.33L95.6101 167.31L96.2901 158.71L89.1301 161.03Z" fill="#F7F3EF"/>
<path d="M48.3699 174.43L52.5399 176L52.4099 166.07L47.6699 164.48L48.3699 174.43Z" fill="#F7F3EF"/>
<path d="M37.3199 170.27L36.7499 160.8L30.6499 158.75L31.7099 168.16L37.3199 170.27Z" fill="#F7F3EF"/>
<path d="M26.0198 150.21L27.8598 154.11L55.2798 163.34H70.6698L98.4398 155.47L101.11 150.21L109.64 144.95L100.62 141.02L108.42 109.94L90.6198 84.83L64.1798 80.16L40.3998 84.83L17.9698 110.18L25.2798 141.02L15.5298 147.24L26.0098 150.21H26.0198ZM70.1298 115.89L75.0198 110.74L85.0198 108.96L96.7998 122.9V140.22L89.0198 149.19H75.0198L69.0198 143.63L66.1298 130.74L70.1298 115.89ZM66.1198 151.72L69.6098 152.63V154.33L68.8198 156.94H66.1198L64.5198 154.33L66.1198 151.72ZM61.2298 155.95L56.8398 156.93L54.7698 154.33L56.8398 151.72L61.2298 152.88V155.95ZM30.5598 122.9L42.3398 108.96L52.3398 110.74L57.2298 115.89L61.2298 130.74L58.3398 143.63L52.3398 149.19H38.3398L30.5598 140.22V122.9Z" fill="#F7F3EF"/>
</g>
<defs>
<clipPath id="clip0_106_25">
<rect width="128.54" height="205.81" fill="white"/>
</clipPath>
</defs>
</svg>
