<svg width="133" height="163" viewBox="0 0 133 163" fill="none" xmlns="http://www.w3.org/2000/svg">
<g clip-path="url(#clip0_106_73)">
<path d="M123.08 90.18L117.66 77.12L111.92 64.69L123.07 65.65V35.7C123.07 32.19 117.97 56.41 117.97 56.41L106.46 53.22L100.13 38.88L102.68 24.54L90.89 15.94L97.23 23.91L92.86 39.21L83.78 37.3L78.83 19.14L92.88 0L73.04 17.21L75.41 33.46L71.12 41.11L64.8 34.1L64.95 23.58L68.26 5.42L48.86 9.56L61.66 11.79L57.46 23.58L52.98 38.56L43.59 41.43L35.15 38.86L35.13 31.26L28.56 19.27L39.74 3.18L21.64 16.92L32.16 46.79L20.88 65.41L18.88 34.85L0 37.98L11.77 40.32L9.65 53.77L6.73 64L16.83 85.11L17.33 91.94L23.38 97.72L26.89 87.29L31.01 75.58L35.66 64.99C37.64 62.96 39.75 60.9 41.8 59.04L50.56 57.08L65.95 58.89L87.03 68.96C87.03 68.96 95.59 80.32 95.65 81.36C95.7 82.22 99.38 93.98 100.61 97.91L100.14 99.18H115.13L127.24 92.73L132.98 72.06L123.1 90.18H123.08Z" fill="#E2462C"/>
<path d="M37.8699 139.62L32.4199 137.57L33.2299 146.68L37.8699 149.73V139.62Z" fill="#F7F3EF"/>
<path d="M63.6998 162.81L63.4298 147.08L58.2298 147.29L55.4798 146.25L55.3398 161.22L58.0298 163L63.6998 162.81Z" fill="#F7F3EF"/>
<path d="M71.3497 146.76L65.9297 146.98L66.1897 162.73L72.0397 162.55L72.6897 162.03L71.3497 146.76Z" fill="#F7F3EF"/>
<path d="M78.9801 157.01L78.3101 144.31L73.8101 146.25L75.0301 160.16L78.9801 157.01Z" fill="#F7F3EF"/>
<path d="M81.3798 155.1L86.8298 150.76L86.4898 140.79L80.7598 143.26L81.3798 155.1Z" fill="#F7F3EF"/>
<path d="M88.9497 139.73L89.2697 148.82L94.3497 144.78L95.6397 136.85L88.9497 139.73Z" fill="#F7F3EF"/>
<path d="M48.8701 143.76V156.92L52.8501 159.57L52.9901 145.31L48.8701 143.76Z" fill="#F7F3EF"/>
<path d="M40.3701 140.56V151.37L46.3701 155.28V142.82L40.3701 140.56Z" fill="#F7F3EF"/>
<path d="M40.32 137.87L46.25 140.1C46.08 137.72 45.79 133.57 45.55 130.25L39.75 128.3L40.32 137.87Z" fill="#F7F3EF"/>
<path d="M55.3501 133.52L55.4901 143.58L58.6401 144.77L63.3601 144.58L62.9101 133.52H55.3501Z" fill="#F7F3EF"/>
<path d="M65.8599 144.48L71.1299 144.26L70.1599 133.52H65.4199L65.8599 144.48Z" fill="#F7F3EF"/>
<path d="M78.1901 141.64L77.8701 131.46L72.6401 133.15L73.5801 143.63L78.1901 141.64Z" fill="#F7F3EF"/>
<path d="M87.0201 128.49L80.3501 130.66L80.6501 140.58L86.4701 138.08L87.0201 128.49Z" fill="#F7F3EF"/>
<path d="M89.57 127.67L89.04 136.97L96.05 133.95L96.73 125.34L89.57 127.67Z" fill="#F7F3EF"/>
<path d="M48.8099 141.07L52.9699 142.64L52.8399 132.71L48.1099 131.11L48.8099 141.07Z" fill="#F7F3EF"/>
<path d="M37.7601 136.9L37.1901 127.44L31.0801 125.38L32.1501 134.79L37.7601 136.9Z" fill="#F7F3EF"/>
<path d="M26.45 116.84L28.29 120.74L55.71 129.97H71.1L98.87 122.1L101.54 116.84L110.07 111.58L101.05 107.65L108.85 76.57L91.05 51.46L64.61 46.79L40.83 51.46L18.4 76.81L25.71 107.65L15.96 113.87L26.44 116.84H26.45ZM70.56 82.52L75.45 77.37L85.45 75.59L97.23 89.53V106.85L89.45 115.82H75.45L69.45 110.26L66.56 97.37L70.56 82.52ZM66.56 118.35L70.05 119.26V120.96L69.26 123.57H66.56L64.96 120.96L66.56 118.35ZM61.67 122.59L57.28 123.57L55.21 120.97L57.28 118.36L61.67 119.52V122.59ZM30.99 89.53L42.77 75.59L52.77 77.37L57.66 82.52L61.66 97.37L58.77 110.26L52.77 115.82H38.77L30.99 106.85V89.53Z" fill="#F7F3EF"/>
</g>
<defs>
<clipPath id="clip0_106_73">
<rect width="132.96" height="163" fill="white"/>
</clipPath>
</defs>
</svg>
