<svg width="40" height="30" viewBox="0 0 40 30" fill="none" xmlns="http://www.w3.org/2000/svg">
<path d="M20.1354 6.89009C16.0005 6.89009 12.6469 10.5482 12.6469 15.0585C12.6469 19.5689 16.0005 23.227 20.1354 23.227C24.2703 23.227 27.624 19.5703 27.624 15.0585C27.624 10.5468 24.2716 6.89009 20.1354 6.89009ZM20.1354 20.5042C17.3821 20.5042 15.0857 18.0019 15.0857 14.9986C15.0857 11.9954 17.3247 9.553 20.078 9.553C22.8313 9.553 25.0704 11.9954 25.0704 14.9986C25.0704 18.0019 22.8887 20.5042 20.1354 20.5042ZM39.9576 14.6828C39.9426 14.6147 39.9501 14.5412 39.9314 14.4745C39.9239 14.4459 39.9064 14.4296 39.8977 14.4051C39.8839 14.3669 39.8877 14.3207 39.869 14.2839C36.2383 5.21692 28.4152 0 20.078 0C11.7408 0 3.76049 5.20875 0.128553 14.2757C0.113576 14.3138 0.116072 14.3533 0.102343 14.3969C0.0936067 14.4241 0.0761334 14.4377 0.0673968 14.4636C0.0486755 14.5317 0.056164 14.6038 0.0436831 14.6733C0.0212175 14.7958 0 14.9156 0 15.0395C0 15.1634 0.0212175 15.2805 0.0436831 15.4043C0.056164 15.4724 0.0474274 15.5473 0.0673968 15.6113C0.0748853 15.6426 0.0936067 15.6548 0.102343 15.6821C0.114824 15.7188 0.112328 15.7651 0.128553 15.8032C3.76049 24.8675 11.6634 30 20.0006 30C28.3379 30 36.2395 24.8784 39.8702 15.8114C39.8889 15.7719 39.8852 15.7324 39.8989 15.6889C39.9076 15.6657 39.9239 15.648 39.9314 15.6208C39.9501 15.5541 39.9451 15.4819 39.9576 15.4111C39.98 15.2886 40 15.1702 40 15.0436C40 14.9238 39.98 14.8067 39.9576 14.6828ZM20.0006 27.2772C12.9302 27.2772 5.96961 23.212 2.54985 15.0381C5.93716 6.89281 12.9901 2.72146 20.078 2.72146C27.1647 2.72146 34.0603 6.8969 37.4489 15.0463C34.0628 23.1902 27.0898 27.2772 20.0006 27.2772Z" fill="white"/>
</svg>
