<svg width="30" height="30" viewBox="0 0 30 30" fill="none" xmlns="http://www.w3.org/2000/svg">
<g clip-path="url(#clip0_143_407)">
<path d="M28.3988 14.9999C28.3988 18.5536 26.9871 21.9618 24.4743 24.4747C21.9614 26.9875 18.5532 28.3993 14.9995 28.3993C11.4457 28.3993 8.03755 26.9875 5.52468 24.4747C3.01181 21.9618 1.6001 18.5536 1.6001 14.9999H2.6476C2.63717 18.0041 3.7182 20.9098 5.68962 23.1767C7.66105 25.4436 10.3887 26.9174 13.3653 27.3239C16.3419 27.7304 19.3648 27.042 21.8719 25.3868C24.379 23.7315 26.1996 21.222 26.9951 18.3251C27.7906 15.4281 27.5069 12.3408 26.1967 9.63729C24.8865 6.93381 22.6391 4.79818 19.8723 3.62757C17.1055 2.45697 14.0078 2.33106 11.1551 3.27326C8.30247 4.21546 5.88911 6.16165 4.36385 8.74988H10.0001V9.99988H2.5001V2.49988H3.7501V7.74988C5.31466 5.31613 7.62556 3.45474 10.3367 2.44447C13.0479 1.4342 16.0133 1.32943 18.789 2.14585C21.5647 2.96227 24.0012 4.65594 25.7336 6.97321C27.466 9.29047 28.4011 12.1066 28.3988 14.9999Z" fill="white"/>
</g>
<defs>
<clipPath id="clip0_143_407">
<rect width="30" height="30" fill="white"/>
</clipPath>
</defs>
</svg>
