<svg width="31" height="31" viewBox="0 0 31 31" fill="none" xmlns="http://www.w3.org/2000/svg">
<path d="M28.5889 31L17.7389 20.15C16.8778 20.8389 15.8875 21.3843 14.7681 21.7861C13.6486 22.188 12.4574 22.3889 11.1944 22.3889C8.06574 22.3889 5.41811 21.305 3.25156 19.1373C1.085 16.9696 0.00114906 14.322 9.11229e-07 11.1944C-0.00114724 8.06689 1.0827 5.41926 3.25156 3.25156C5.42041 1.08385 8.06804 0 11.1944 0C14.3209 0 16.9691 1.08385 19.1391 3.25156C21.3091 5.41926 22.3923 8.06689 22.3889 11.1944C22.3889 12.4574 22.188 13.6486 21.7861 14.7681C21.3843 15.8875 20.8389 16.8778 20.15 17.7389L31 28.5889L28.5889 31ZM11.1944 18.9444C13.3472 18.9444 15.1774 18.1913 16.6849 16.6849C18.1924 15.1785 18.9456 13.3484 18.9444 11.1944C18.9433 9.04052 18.1901 7.21094 16.6849 5.70572C15.1797 4.2005 13.3495 3.44674 11.1944 3.44444C9.03937 3.44215 7.2098 4.19591 5.70572 5.70572C4.20165 7.21554 3.44789 9.04511 3.44445 11.1944C3.441 13.3438 4.19476 15.1739 5.70572 16.6849C7.21669 18.1959 9.04626 18.949 11.1944 18.9444Z" fill="white"/>
</svg>
