<svg width="30" height="30" viewBox="0 0 30 30" fill="none" xmlns="http://www.w3.org/2000/svg">
<g clip-path="url(#clip0_143_405)">
<path d="M27.93 12.8447H24.0445C23.6572 12.8447 23.3188 12.5938 23.1998 12.2279C23.0785 11.8543 22.9313 11.4897 22.7591 11.1367C22.5943 10.7967 22.6594 10.3895 22.9285 10.1194L25.6668 7.38142C25.7724 7.27577 25.7724 7.10456 25.667 6.99912L23.0007 4.33305C22.8954 4.2277 22.7245 4.22769 22.619 4.33322L19.8904 7.06185C19.6198 7.3324 19.2095 7.39691 18.8681 7.2289C18.5131 7.05365 18.1461 6.90373 17.7699 6.78024C17.4051 6.66103 17.1555 6.32254 17.1555 5.93626V2.07021C17.1555 1.99858 17.127 1.92988 17.0764 1.87922C17.0257 1.82857 16.957 1.80011 16.8854 1.8001H13.1149C13.0433 1.80011 12.9746 1.82857 12.9239 1.87922C12.8733 1.92988 12.8448 1.99858 12.8448 2.07021V6.02342C12.8448 6.40088 12.6064 6.73378 12.2539 6.85952C11.8997 6.98658 11.5579 7.13509 11.2306 7.30425C10.8873 7.4817 10.4681 7.42003 10.193 7.14493L7.38133 4.33322C7.35627 4.30812 7.3265 4.28821 7.29374 4.27463C7.26097 4.26105 7.22585 4.25406 7.19038 4.25406C7.15491 4.25406 7.11979 4.26106 7.08703 4.27465C7.05427 4.28824 7.0245 4.30815 6.99944 4.33325L4.33331 6.99909C4.3082 7.02417 4.28828 7.05396 4.27469 7.08674C4.26109 7.11953 4.2541 7.15467 4.2541 7.19017C4.2541 7.22566 4.26109 7.2608 4.27469 7.29359C4.28828 7.32637 4.3082 7.35616 4.33331 7.38124L7.24018 10.2881C7.50581 10.5529 7.57387 10.9532 7.41777 11.291C7.27736 11.5956 7.15524 11.9083 7.05206 12.2274C6.93332 12.5934 6.59409 12.8447 6.20652 12.8447H2.0703C1.99867 12.8447 1.92996 12.8732 1.87931 12.9239C1.82865 12.9745 1.80019 13.0432 1.80019 13.1148V16.885C1.80019 16.9566 1.82865 17.0253 1.87931 17.076C1.92996 17.1266 1.99867 17.1551 2.0703 17.1551H6.31258C6.68907 17.1551 7.02109 17.3923 7.14851 17.7436C7.25307 18.0318 7.37339 18.3141 7.50892 18.5892C7.676 18.9304 7.61151 19.3407 7.34084 19.6114L4.33313 22.6191C4.22775 22.7244 4.22775 22.8952 4.33328 23.0008L6.99965 25.6668C7.10494 25.7722 7.27574 25.7722 7.38133 25.6666L10.3991 22.6488C10.6691 22.3797 11.0781 22.3145 11.4181 22.4805C11.6906 22.6131 11.97 22.7308 12.2552 22.8333C12.607 22.9606 12.8448 23.2926 12.8448 23.6697V27.9299C12.8449 28.0016 12.8733 28.0703 12.924 28.1209C12.9746 28.1716 13.0433 28.2001 13.115 28.2001H16.8854C16.957 28.2001 17.0258 28.1716 17.0764 28.1209C17.1271 28.0703 17.1555 28.0016 17.1555 27.9299V23.7571C17.1555 23.3705 17.4055 23.032 17.7702 22.9124C18.0804 22.8107 18.3844 22.6913 18.6808 22.5547C19.0187 22.3986 19.4186 22.4665 19.6835 22.7315L22.6192 25.6669C22.7245 25.7722 22.8954 25.7722 23.0009 25.6666L25.6669 23.001C25.7724 22.8954 25.7724 22.7243 25.667 22.619L22.8267 19.7787C22.5523 19.5033 22.4907 19.0846 22.6679 18.7417C22.8328 18.4222 22.9781 18.0889 23.1036 17.7427C23.2311 17.3918 23.5628 17.1551 23.9388 17.1551H27.93C28.0017 17.1551 28.0704 17.1267 28.121 17.076C28.1717 17.0254 28.2002 16.9567 28.2002 16.885V13.1149C28.2002 13.0432 28.1717 12.9745 28.121 12.9239C28.0704 12.8732 28.0017 12.8448 27.93 12.8448L27.93 12.8447ZM27.93 11.6447C28.7419 11.6447 29.4001 12.3029 29.4001 13.1148V16.885C29.4001 17.6969 28.7419 18.3551 27.93 18.3551H24.1555C24.059 18.6045 23.9522 18.8497 23.8354 19.0902L26.5155 21.7704C27.0894 22.3443 27.0894 23.2749 26.5155 23.8493L23.8495 26.515C23.2755 27.0895 22.3442 27.0895 21.7704 26.5152L18.9871 23.7321C18.7795 23.8223 18.5688 23.9052 18.3554 23.9807V27.9299C18.3554 28.7419 17.6972 29.4001 16.8853 29.4001H13.1148C12.3029 29.4001 11.6447 28.7419 11.6447 27.9299V23.8865C11.458 23.8145 11.2735 23.7368 11.0916 23.6534L8.22977 26.5152C7.65552 27.0894 6.72464 27.0894 6.15089 26.5152L3.4847 23.8493C2.91045 23.2751 2.91045 22.3442 3.4847 21.7704L6.33631 18.9188C6.25032 18.7335 6.17029 18.5455 6.09634 18.3551H2.07021C1.25831 18.3551 0.600098 17.6969 0.600098 16.885V13.1148C0.600098 12.3029 1.25831 11.6447 2.07021 11.6447H5.98202C6.05989 11.4217 6.14594 11.2017 6.23998 10.985L3.4847 8.22977C2.91048 7.65555 2.91048 6.72478 3.48473 6.15054L6.15068 3.48487C6.72464 2.91042 7.65552 2.91042 8.22977 3.4847L10.8818 6.13677C11.1313 6.01548 11.3858 5.90502 11.6448 5.80571V2.07021C11.6448 1.25831 12.303 0.600098 13.1149 0.600098H16.8853C17.6972 0.600098 18.3554 1.25831 18.3554 2.07021V5.71217C18.6417 5.8136 18.9231 5.92856 19.1985 6.05664L21.7703 3.48484C22.3442 2.91036 23.2756 2.91036 23.8493 3.48464L26.5157 6.15071C27.0894 6.7249 27.0894 7.65537 26.5155 8.22977L23.9329 10.8121C24.058 11.0842 24.1703 11.3621 24.2694 11.6447H27.93H27.93ZM19.2001 14.8501C19.2001 17.2526 17.2527 19.2001 14.8501 19.2001C12.4476 19.2001 10.5001 17.2526 10.5001 14.8501C10.5001 12.4475 12.4476 10.5001 14.8501 10.5001C17.2527 10.5001 19.2001 12.4475 19.2001 14.8501ZM18.0001 14.8501C18.0001 13.1102 16.59 11.7001 14.8501 11.7001C13.1103 11.7001 11.7001 13.1102 11.7001 14.8501C11.7001 16.5899 13.1103 18.0001 14.8501 18.0001C16.59 18.0001 18.0001 16.5899 18.0001 14.8501Z" fill="white"/>
</g>
<defs>
<clipPath id="clip0_143_405">
<rect width="30" height="30" fill="white"/>
</clipPath>
</defs>
</svg>
